<svg height="512pt" viewBox="0 0 512 512" width="512pt" xmlns="http://www.w3.org/2000/svg" fill="rgb(255, 187, 31)"><path d="m482 15c0-8.285156-6.714844-15-15-15h-452c-8.285156 0-15 6.714844-15 15v422c0 8.285156 6.714844 15 15 15h297.144531c16.882813 35.441406 53.054688 60 94.855469 60 57.898438 0 105-47.101562 105-105 0-28.542969-11.453125-54.457031-30-73.402344zm-452 407v-392h422v282.144531c-9.328125-4.445312-19.410156-7.546875-30-9.070312v-227.074219c0-8.285156-6.714844-15-15-15h-331c-8.285156 0-15 6.714844-15 15v301c0 8.285156 6.714844 14.988281 15 14.988281h227.074219c-.703125 4.902344-1.074219 9.917969-1.074219 15.011719s.371094 10.097656 1.074219 15zm282.144531-60h-221.144531v-39.570312l60-72 42.972656 51.570312h-27.972656c-8.285156 0-15 6.714844-15 15s6.714844 14.988281 15 14.988281h60 .007812c4.664063 0 9.136719-2.21875 11.945313-5.925781l78.980469-104.152344 62.769531 83.695313c-29.855469 8.046875-54.488281 28.953125-67.558594 56.394531zm79.855469-90-63-84c-2.824219-3.765625-7.253906-5.988281-11.960938-6-.011718 0-.023437 0-.039062 0-4.691406 0-9.117188 2.195312-11.953125 5.9375l-79.601563 104.96875-62.921874-75.507812c-2.847657-3.421876-7.070313-5.398438-11.523438-5.398438-4.449219 0-8.671875 1.980469-11.523438 5.398438l-48.476562 58.171874v-184.570312h301zm15 210c-41.355469 0-75-33.644531-75-75s33.644531-74.996094 74.996094-75h.015625.011719c41.34375.011719 74.976562 33.652344 74.976562 75 0 41.355469-33.644531 75-75 75zm0 0"/><path d="m437 392h-15v-15c0-8.285156-6.714844-15-15-15s-15 6.714844-15 15v15h-15c-8.285156 0-15 6.714844-15 15s6.714844 15 15 15h15v15c0 8.285156 6.714844 15 15 15s15-6.714844 15-15v-15h15c8.285156 0 15-6.714844 15-15s-6.714844-15-15-15zm0 0"/><path d="m196 212c24.8125 0 45-20.1875 45-45s-20.1875-45-45-45-45 20.1875-45 45 20.1875 45 45 45zm0-60c8.269531 0 15 6.730469 15 15s-6.730469 15-15 15-15-6.730469-15-15 6.730469-15 15-15zm0 0"/></svg>